<?xml version="1.0" encoding="UTF-8" standalone="no"?>
<svg
   width="3072"
   height="3072"
   viewBox="0 0 3072 3072"
   version="1.1"
   id="svg1"
   sodipodi:docname="envelope-o.svg"
   inkscape:version="1.4.2 (ebf0e940d0, 2025-05-08)"
   xmlns:inkscape="http://www.inkscape.org/namespaces/inkscape"
   xmlns:sodipodi="http://sodipodi.sourceforge.net/DTD/sodipodi-0.dtd"
   xmlns="http://www.w3.org/2000/svg"
   xmlns:svg="http://www.w3.org/2000/svg">
  <defs
     id="defs1" />
  <sodipodi:namedview
     id="namedview1"
     pagecolor="#ffffff"
     bordercolor="#999999"
     borderopacity="1"
     inkscape:showpageshadow="2"
     inkscape:pageopacity="0"
     inkscape:pagecheckerboard="0"
     inkscape:deskcolor="#d1d1d1"
     showgrid="false"
     inkscape:zoom="0.25358073"
     inkscape:cx="1536"
     inkscape:cy="1536"
     inkscape:window-width="1920"
     inkscape:window-height="981"
     inkscape:window-x="0"
     inkscape:window-y="0"
     inkscape:window-maximized="1"
     inkscape:current-layer="svg1" />
  <circle
     cx="1536"
     cy="1536"
     r="1400"
     fill="#FFFFFF"
     id="circle1"
     style="fill:#ffffff;fill-opacity:1;stroke-width:0.884467" />
  <path
     d="m 2304,2080 v -768 q -32,36 -69,66 -268,206 -426,338 -51,43 -83,67 -32,24 -86.5,48.5 Q 1585,1856 1537,1856 h -2 q -48,0 -102.5,-24.5 -54.5,-24.5 -86.5,-48.5 -32,-24 -83,-67 -158,-132 -426,-338 -37,-30 -69,-66 v 768 q 0,13 9.5,22.5 9.5,9.5 22.5,9.5 h 1472 q 13,0 22.5,-9.5 9.5,-9.5 9.5,-22.5 z m 0,-1051 v -24.5 l -0.5,-13 -3,-12.5 -5.5,-9 -9,-7.5 -14,-2.5 H 800 q -13,0 -22.5,9.5 -9.5,9.5 -9.5,22.5 0,168 147,284 193,152 401,317 6,5 35,29.5 29,24.5 46,37.5 17,13 44.5,31.5 27.5,18.5 50.5,27.5 23,9 43,9 h 2 q 20,0 43,-9 23,-9 50.5,-27.5 27.5,-18.5 44.5,-31.5 17,-13 46,-37.5 29,-24.5 35,-29.5 208,-165 401,-317 54,-43 100.5,-115.5 Q 2304,1088 2304,1029 Z m 128,-37 v 1088 q 0,66 -47,113 -47,47 -113,47 H 800 q -66,0 -113,-47 -47,-47 -47,-113 V 992 q 0,-66 47,-113 47,-47 113,-47 h 1472 q 66,0 113,47 47,47 47,113 z"
     id="path1" />
</svg>
