<?xml version="1.0" encoding="UTF-8" standalone="no"?>
<svg width="3072" height="3072" viewBox="0 0 3072 3072" xmlns="http://www.w3.org/2000/svg">
<circle cx="1536" cy="1536" r="1400" fill="#FFFFFF"/>
<path d="m 928,1024 q 66,0 113,47 47,47 47,113 v 1088 q 0,66 -47,113 -47,47 -113,47 H 800 q -66,0 -113,-47 -47,-47 -47,-113 V 1184 q 0,-66 47,-113 47,-47 113,-47 z m 1376,163 q 58,34 93,93 35,59 35,128 v 768 q 0,106 -75,181 -75,75 -181,75 h -864 q -66,0 -113,-47 -47,-47 -47,-113 V 736 q 0,-40 28,-68 28,-28 68,-28 h 672 q 40,0 88,20 48,20 76,48 l 152,152 q 28,28 48,76 20,48 20,88 z m -736,989 v -128 q 0,-14 -9,-23 -9,-9 -23,-9 h -128 q -14,0 -23,9 -9,9 -9,23 v 128 q 0,14 9,23 9,9 23,9 h 128 q 14,0 23,-9 9,-9 9,-23 z m 0,-256 v -128 q 0,-14 -9,-23 -9,-9 -23,-9 h -128 q -14,0 -23,9 -9,9 -9,23 v 128 q 0,14 9,23 9,9 23,9 h 128 q 14,0 23,-9 9,-9 9,-23 z m 0,-256 v -128 q 0,-14 -9,-23 -9,-9 -23,-9 h -128 q -14,0 -23,9 -9,9 -9,23 v 128 q 0,14 9,23 9,9 23,9 h 128 q 14,0 23,-9 9,-9 9,-23 z m 256,512 v -128 q 0,-14 -9,-23 -9,-9 -23,-9 h -128 q -14,0 -23,9 -9,9 -9,23 v 128 q 0,14 9,23 9,9 23,9 h 128 q 14,0 23,-9 9,-9 9,-23 z m 0,-256 v -128 q 0,-14 -9,-23 -9,-9 -23,-9 h -128 q -14,0 -23,9 -9,9 -9,23 v 128 q 0,14 9,23 9,9 23,9 h 128 q 14,0 23,-9 9,-9 9,-23 z m 0,-256 v -128 q 0,-14 -9,-23 -9,-9 -23,-9 h -128 q -14,0 -23,9 -9,9 -9,23 v 128 q 0,14 9,23 9,9 23,9 h 128 q 14,0 23,-9 9,-9 9,-23 z m 256,512 v -128 q 0,-14 -9,-23 -9,-9 -23,-9 h -128 q -14,0 -23,9 -9,9 -9,23 v 128 q 0,14 9,23 9,9 23,9 h 128 q 14,0 23,-9 9,-9 9,-23 z m 0,-256 v -128 q 0,-14 -9,-23 -9,-9 -23,-9 h -128 q -14,0 -23,9 -9,9 -9,23 v 128 q 0,14 9,23 9,9 23,9 h 128 q 14,0 23,-9 9,-9 9,-23 z m 0,-256 v -128 q 0,-14 -9,-23 -9,-9 -23,-9 h -128 q -14,0 -23,9 -9,9 -9,23 v 128 q 0,14 9,23 9,9 23,9 h 128 q 14,0 23,-9 9,-9 9,-23 z m 96,-384 v -256 h -160 q -40,0 -68,-28 -28,-28 -28,-68 V 768 h -640 v 512 z"/>
</svg>
