<?xml version="1.0" encoding="UTF-8" standalone="no"?>
<svg
   width="3072"
   height="3072"
   viewBox="0 0 3072 3072"
   version="1.1"
   id="svg1"
   sodipodi:docname="mobile-phone.svg"
   inkscape:version="1.4.2 (ebf0e940d0, 2025-05-08)"
   xmlns:inkscape="http://www.inkscape.org/namespaces/inkscape"
   xmlns:sodipodi="http://sodipodi.sourceforge.net/DTD/sodipodi-0.dtd"
   xmlns="http://www.w3.org/2000/svg"
   xmlns:svg="http://www.w3.org/2000/svg">
  <defs
     id="defs1" />
  <sodipodi:namedview
     id="namedview1"
     pagecolor="#ffffff"
     bordercolor="#999999"
     borderopacity="1"
     inkscape:showpageshadow="2"
     inkscape:pageopacity="0"
     inkscape:pagecheckerboard="0"
     inkscape:deskcolor="#d1d1d1"
     showgrid="false"
     inkscape:zoom="0.25358073"
     inkscape:cx="1536"
     inkscape:cy="1536"
     inkscape:window-width="1920"
     inkscape:window-height="981"
     inkscape:window-x="0"
     inkscape:window-y="0"
     inkscape:window-maximized="1"
     inkscape:current-layer="svg1" />
  <circle
     cx="1536"
     cy="1536"
     r="1400"
     fill="#FFFFFF"
     id="circle1"
     style="fill:#ffffff;fill-opacity:1;stroke-width:0.884467" />
  <path
     d="m 1616,2048 q 0,-33 -23.5,-56.5 -23.5,-23.5 -56.5,-23.5 -33,0 -56.5,23.5 -23.5,23.5 -23.5,56.5 0,33 23.5,56.5 23.5,23.5 56.5,23.5 33,0 56.5,-23.5 23.5,-23.5 23.5,-56.5 z m 208,-160 v -704 q 0,-13 -9.5,-22.5 -9.5,-9.5 -22.5,-9.5 h -512 q -13,0 -22.5,9.5 -9.5,9.5 -9.5,22.5 v 704 q 0,13 9.5,22.5 9.5,9.5 22.5,9.5 h 512 q 13,0 22.5,-9.5 9.5,-9.5 9.5,-22.5 z m -192,-848 q 0,-16 -16,-16 h -160 q -16,0 -16,16 0,16 16,16 h 160 q 16,0 16,-16 z m 288,-16 v 1024 q 0,52 -38,90 -38,38 -90,38 h -512 q -52,0 -90,-38 -38,-38 -38,-90 V 1024 q 0,-52 38,-90 38,-38 90,-38 h 512 q 52,0 90,38 38,38 38,90 z"
     id="path1" />
</svg>
