<?xml version="1.0" encoding="UTF-8" standalone="no"?>
<svg width="3072" height="3072" viewBox="0 0 3072 3072" xmlns="http://www.w3.org/2000/svg">
<circle cx="1536" cy="1536" r="1400" fill="#FFFFFF"/>
<path d="m 1616,2048 q 0,-33 -23.5,-56.5 -23.5,-23.5 -56.5,-23.5 -33,0 -56.5,23.5 -23.5,23.5 -23.5,56.5 0,33 23.5,56.5 23.5,23.5 56.5,23.5 33,0 56.5,-23.5 23.5,-23.5 23.5,-56.5 z m 208,-160 v -704 q 0,-13 -9.5,-22.5 -9.5,-9.5 -22.5,-9.5 h -512 q -13,0 -22.5,9.5 -9.5,9.5 -9.5,22.5 v 704 q 0,13 9.5,22.5 9.5,9.5 22.5,9.5 h 512 q 13,0 22.5,-9.5 9.5,-9.5 9.5,-22.5 z m -192,-848 q 0,-16 -16,-16 h -160 q -16,0 -16,16 0,16 16,16 h 160 q 16,0 16,-16 z m 288,-16 v 1024 q 0,52 -38,90 -38,38 -90,38 h -512 q -52,0 -90,-38 -38,-38 -38,-90 V 1024 q 0,-52 38,-90 38,-38 90,-38 h 512 q 52,0 90,38 38,38 38,90 z"/>
</svg>
